<svg xmlns="http://www.w3.org/2000/svg" viewBox="0 0 588.29 358.09"><defs><style>.cls-1{isolation:isolate;}.cls-2{fill:#9bc1f9;opacity:0.3;}.cls-3{fill:#466eb6;}.cls-4{fill:#7f1ca0;}.cls-5{fill:#f47458;}.cls-6{fill:#f48c7f;}.cls-7{fill:#b75742;}.cls-8{fill:#13375b;}.cls-9{fill:#355389;}.cls-10{fill:#86b1f2;}.cls-11{fill:#fae0b2;}.cls-12{fill:#daeef7;mix-blend-mode:multiply;}.cls-13{fill:#50bfa5;}.cls-14{fill:#3c8f7c;}.cls-15{fill:#4154f1;}.cls-16{fill:#8d9eff;}.cls-17{fill:#efefef;}.cls-18{fill:#ff55a0;}.cls-19{fill:#fff;}.cls-20{fill:#f79c8d;}.cls-21{fill:#db267d;}.cls-22{fill:#f7a491;}.cls-23{fill:#1d37d6;}.cls-24{fill:#07345a;}.cls-25{fill:#327f6b;}</style></defs><g class="cls-1"><g id="Layer_2" data-name="Layer 2"><g id="Layer_1-2" data-name="Layer 1"><path class="cls-2" d="M543.36,279.9H474.47a38.65,38.65,0,0,0,12.07-28.52v-8.45c0-24.45,17.78-44.27,39.71-44.27h0c22.48,0,40.7-20.32,40.7-45.39h0c0-25.07-18.22-45.39-40.7-45.39h-6.67c-21.93,0-39.71-19.82-39.71-44.28h0c0-20.4-14.83-36.94-33.13-36.94H187.84C167.48,26.66,151,45.07,151,67.78h0c0,15.53,7.71,29,19.1,36H124.59c-19,0-34.34,15.87-34.34,35.44h0c0,23.46-18.42,42.47-41.15,42.47H42.19C18.89,181.73,0,201.22,0,225.27H0c0,24,18.89,43.53,42.19,43.53h0c22.73,0,41.15,19,41.15,42.47v8.1c0,19.57,15.38,35.44,34.34,35.44h159.8c1.21.12,2.43.18,3.67.18H543.36a37.55,37.55,0,0,0,37.55-37.54h0A37.55,37.55,0,0,0,543.36,279.9Z"/><path class="cls-3" d="M166,234.84c-1.05,0-1.9,1.2-1.9,2.69s.84,2.7,1.88,2.7,1.9-1.2,1.9-2.69S167,234.84,166,234.84Zm0,.76c.56,0,1,.28,1,.63s-.46.62-1,.62-1-.28-1-.63S165.39,235.6,166,235.6Zm0,3.62c-.79,0-1.44-.44-1.43-1s.64-1,1.43-1,1.43.44,1.43,1S166.74,239.22,166,239.22Z"/><path class="cls-4" d="M161.66,240.79a6.48,6.48,0,0,0-.61,2.74L161,263.28a2.17,2.17,0,0,0,2.18,2.16l11.29,0a2.17,2.17,0,0,0,2.19-2.15l.05-19.75a6.47,6.47,0,0,0-.6-2.74Z"/><path class="cls-4" d="M161.66,240.79a6.48,6.48,0,0,0-.61,2.74L161,263.28a2.17,2.17,0,0,0,2.18,2.16l11.29,0a2.17,2.17,0,0,0,2.19-2.15l.05-19.75a6.47,6.47,0,0,0-.6-2.74Z"/><path class="cls-5" d="M176.71,243.57l-.05,19.75a2.16,2.16,0,0,1-2.18,2.15l-11.3,0a2.17,2.17,0,0,1-2.18-2.16l.05-19.75a6.64,6.64,0,0,1,.61-2.74l14.45,0A6.47,6.47,0,0,1,176.71,243.57Z"/><path class="cls-6" d="M164,263.29l.05-19.76a6.62,6.62,0,0,1,.6-2.73h-3a6.48,6.48,0,0,0-.61,2.74L161,263.28a2.17,2.17,0,0,0,2.18,2.16h3A2.17,2.17,0,0,1,164,263.29Z"/><path class="cls-7" d="M176.71,243.57l-.05,19.75a2.16,2.16,0,0,1-2.18,2.15h-4.62a2.19,2.19,0,0,0,2.21-2.15l.05-19.76a6.47,6.47,0,0,0-.61-2.73h4.6A6.47,6.47,0,0,1,176.71,243.57Z"/><path class="cls-8" d="M176.11,240.83l-14.45,0h0a1.15,1.15,0,0,1,1.16-1.14l12.14,0a1.14,1.14,0,0,1,1.15,1.15Z"/><rect class="cls-9" x="167.61" y="252.8" width="2.45" height="15.66" transform="translate(-92.2 428.83) rotate(-89.86)"/><path class="cls-10" d="M147.43,234.43h1.73a1.83,1.83,0,0,0-1-.3H104.88a3.88,3.88,0,0,0-4.1,3.63v2.31a3.89,3.89,0,0,0,4.1,3.63h42.78Z"/><path class="cls-3" d="M122.87,234.13a3.72,3.72,0,0,0-3.92,3.48v2.61a3.72,3.72,0,0,0,3.92,3.47H149.8v-.58h-.11l-6.84-.58-1.39-4.81s2.67-2.66,2.85-2.73,5.38-.27,5.38-.27h.11v-.58Z"/><path class="cls-11" d="M148.06,238.9a5.55,5.55,0,0,1,1.64-4.18H123.42a3.41,3.41,0,0,0-3.6,3.19v2a3.41,3.41,0,0,0,3.6,3.19H149.7S148.06,242.44,148.06,238.9Z"/><path class="cls-12" d="M119.82,237.91v2a2.74,2.74,0,0,0,.11.76,7.52,7.52,0,0,1,5.82-4.37c7.54-1.39,23.95-1.59,23.95-1.59H123.42A3.41,3.41,0,0,0,119.82,237.91Z"/><path class="cls-13" d="M146.72,253.57h2a1.93,1.93,0,0,0-1.16-.39h-49a4.59,4.59,0,0,0-4.63,4.55v2.89a4.59,4.59,0,0,0,4.63,4.55l48.42,0Z"/><path class="cls-14" d="M118.92,253.19a4.39,4.39,0,0,0-4.43,4.35v3.27a4.39,4.39,0,0,0,4.43,4.35H149.4v-.73h-.12l-7.75-.72-1.57-6s3-3.33,3.22-3.41,6.1-.35,6.1-.35h.12v-.73Z"/><path class="cls-11" d="M147.43,259.15a7.31,7.31,0,0,1,1.85-5.23H119.55a4,4,0,0,0-4.08,4v2.51a4,4,0,0,0,4.08,4h29.73S147.43,263.59,147.43,259.15Z"/><path class="cls-12" d="M115.47,257.92v2.51a3.83,3.83,0,0,0,.12,1,8.72,8.72,0,0,1,6.58-5.47c8.55-1.74,27.11-2,27.11-2H119.55A4,4,0,0,0,115.47,257.92Z"/><path class="cls-5" d="M92.3,244h-2a2.27,2.27,0,0,1,1.15-.31h49c2.56,0,4.64,1.62,4.64,3.61v2.3c0,2-2.08,3.6-4.64,3.6H92.05Z"/><path class="cls-7" d="M120.11,243.68c2.45,0,4.44,1.55,4.44,3.45v2.59c0,1.91-2,3.45-4.44,3.45H89.62v-.57h.12L97.5,252l1.56-4.78s-3-2.64-3.22-2.7-6.1-.28-6.1-.28h-.12v-.58Z"/><path class="cls-11" d="M91.6,248.41a5.28,5.28,0,0,0-1.86-4.15h29.75c2.25,0,4.07,1.42,4.07,3.17v2c0,1.75-1.82,3.17-4.07,3.17H89.74S91.6,251.93,91.6,248.41Z"/><path class="cls-12" d="M123.56,247.43v2a2.46,2.46,0,0,1-.12.76c-1-1.91-2.92-3.75-6.58-4.34-8.55-1.38-27.12-1.59-27.12-1.59h29.75C121.74,244.26,123.56,245.68,123.56,247.43Z"/><rect class="cls-15" x="257.5" y="247.71" width="4.67" height="107.11" transform="translate(60.65 -43.12) rotate(10.73)"/><polygon class="cls-15" points="404.52 354.8 410.04 354.8 389.46 248.2 384.87 249.07 404.52 354.8"/><polygon class="cls-15" points="303.39 354.8 308.91 354.8 288.33 248.2 283.73 249.07 303.39 354.8"/><polygon class="cls-15" points="354.19 354.8 349.7 354.86 369.44 248.68 374.03 249.55 354.19 354.8"/><path class="cls-16" d="M334.15,104.63c18.19,2,41.72,4,65.35,44.1,25.82,43.82,12.23,109.27-8.15,127.46s-87,40.65-142.9,7c0,0-33.79-20.38-16.45-54.19,26.68-52,22.91-62.89,34.85-83.29S295.55,100.5,334.15,104.63Z"/><path class="cls-15" d="M399.5,148.73c-16.13-27.37-32.21-37-46.58-41a120.2,120.2,0,0,1,16.83,22.72c25.83,43.82,12.23,109.27-8.15,127.46-18.07,16.13-72.46,35.61-123.57,16.37a52,52,0,0,0,10.42,8.93c55.95,33.62,122.52,11.16,142.9-7S425.32,192.55,399.5,148.73Z"/><path class="cls-15" d="M81.86,135.69c-.52,4.07,3.71,7.29,7.48,7a9.27,9.27,0,0,0,8.3-7.79c.66-4.42-2-8-6.12-8.29a5.14,5.14,0,0,0-5.41,6.85c.83,2.58,3.19,3.54,4.37,2.83a1.18,1.18,0,0,0-.25-2.2,1.16,1.16,0,0,0-1.15.49c-1-.38-1.91-2.17-1.28-4.09.81-2.46,3.92-2.6,5.85-1.46,2.46,1.46,2.85,4.61,1.95,7.11a7.56,7.56,0,0,1-6.35,4.91A5.9,5.9,0,0,1,83,135.7.58.58,0,0,0,81.86,135.69Z"/><path class="cls-15" d="M362.07,0c-18.83-.11-34.14,9.17-34.21,20.73,0,5.78,3.75,11,9.9,14.87L330,52.6l16.15-13.16a51.82,51.82,0,0,0,15.65,2.43C380.64,42,396,32.7,396,21.14S380.89.11,362.07,0Z"/><path class="cls-15" d="M349,22.93a11.87,11.87,0,1,0,8.45-14.52A11.88,11.88,0,0,0,349,22.93Z"/><path class="cls-17" d="M367.13,20.1a6.35,6.35,0,0,1-12.28,3.24Z"/><rect class="cls-18" x="165.49" y="124.92" width="56.26" height="39.04" rx="2.15" transform="translate(-1.08 1.46) rotate(-0.43)"/><polygon class="cls-18" points="220.03 144.05 236.81 161.15 216.11 157.29 220.03 144.05"/><path class="cls-19" d="M204.89,141.64l-5-.09s-6.36-4.75-6.55-6.43.84-5.23-.14-5.68a3.31,3.31,0,0,0-4.4,1.43c-1,1.61-.16,7.5-.75,7.9-.38.24-3.28.27-5.4.26a3.73,3.73,0,0,0-3.33,2h0a2,2,0,0,0,.48,2.46l1.12.95-.88,1.17a2,2,0,0,0,.38,2.79l.89.68-.61.69a2,2,0,0,0,.36,2.95l.79.56-.12.21a2,2,0,0,0,.65,2.62l.8.53,13.44.24a9.27,9.27,0,0,0,3.68-.7l4.74-.69a1.05,1.05,0,0,0,.89-1l0-11.77A1,1,0,0,0,204.89,141.64Z"/><polygon class="cls-20" points="275.77 171.24 271.09 185.26 285.34 179.66 275.77 171.24"/><path class="cls-21" d="M290.45,129.51c-.95,0-3.55.91-7.35,8.07-4.86,9.16-12,36.8-12,36.8l21.2,7.87,2.73-5.77,4.48-44.43S290.72,129.5,290.45,129.51Z"/><path class="cls-18" d="M318.48,125.52c-6.06,0-21.06,1.77-28,4,0,0-5.11,43.81,4.61,77.1,2.17,7.45-1.8,30.89-1.8,30.89l62.82-.82s-7.44-56.67-4.64-65.82,2.87-41.05,2.87-41.05l-14.11-2.43A142.56,142.56,0,0,0,318.48,125.52Z"/><path class="cls-22" d="M325.8,318.81s-1.39,16-3.95,20.42.14,11.95.27,13,5.38,2.51,13.72,1.63,8.2-2.81,7.53-5.91-5.11-7.08-5.38-10,2.56-13.58,2.56-13.58Z"/><path class="cls-23" d="M300.35,224.31s-43.37-2.4-53.05,3.44,1.75,17.85,1.75,17.85,35.3,15.3,94.41,18.7c14,.8,15.2-36.37,12.58-39.45S300.35,224.31,300.35,224.31Z"/><path class="cls-9" d="M336.88,355.08c8.59-.91,7.52-5.12,6.83-8.31-.43-2-2.89-4.35-4.36-6.58A14.41,14.41,0,0,1,333.6,343c-3.87,1.14-9.18-1.11-12.56-2.53a41.6,41.6,0,0,0-1.15,11C320,352.54,328.29,356,336.88,355.08Z"/><path class="cls-15" d="M332.14,255.22c-1.73,13.07-10.31,78.11-10.31,78.11l19.9,2.46S366.21,250.9,365,237.91s-10.42-14.08-10.42-14.08S336.73,220.64,332.14,255.22Z"/><path class="cls-24" d="M313.07,70.25s6.62-7,11.94,1.51a5.28,5.28,0,0,1,7,1.8s7.4-2.23,9.2,8.84c0,0,3.81-.72,4.31,3.81a11.16,11.16,0,0,1-1.8,7.55s2.15,1.6,1.17,5.77a5.12,5.12,0,0,1-3.75,4.07s-.79,6-3.38,7.77-6.11.93-6.11.93-.94,3.24-3.95,3-6.76-3.16-10.14-1.87-12.15-.07-12.15-.07-9.85-4.39-6.9-14.45c0,0-5.17-4.67-.65-10.28,0,0-3.3-8.77,3.24-13.94S313.07,70.25,313.07,70.25Z"/><path class="cls-22" d="M314.19,117.59l-1.2,8.88s-2.68,12.8.77,15.26,14.67-15.62,14.67-15.62l-1.18-22.51Z"/><path class="cls-5" d="M327.63,110.89c-2.85,7.68-9.64,12.4-14.45,14.23l1-7.53,13.06-14Z"/><path class="cls-22" d="M319.28,80a11.87,11.87,0,0,0-15.54,9.46,90.73,90.73,0,0,0-1,11.39c-.19,10.37,5.18,20.47,9.89,20.47s17.73-6.72,18.2-21.44C331.16,90.75,326.62,82.49,319.28,80Z"/><path class="cls-22" d="M327.4,101c0,2.29,1.52,4.15,3.39,4.15s3.39-1.86,3.39-4.15-1.52-4.14-3.39-4.14S327.4,98.71,327.4,101Z"/><path class="cls-24" d="M298.87,74.8c-4.87,3.85-6.57,9.71-3.81,13.08s8.95,3,13.81-.88,6.57-9.71,3.81-13.08S303.73,70.94,298.87,74.8Z"/><path class="cls-22" d="M355,134.67c-5.87-2.19-8.74,50.55-9.53,72.26-10.41,1-28.54,0-33-.33-2.12-.16-7-1.95-9.13-2.22a21.62,21.62,0,0,0-5.19-.25c-.39.07-11.23,4.49-12.16,5.46-1.15,1.2-4.26,4.23-3.73,5.54s6-3.65,6-3.65l2.66-1.49c-3.32,3.23-9.65,7.49-8.73,9s6.6-2.81,10.67-5.75c-3.49,3.14-7.83,8.76-6.83,9.64s5.83-5.72,11.1-7.6c1.95-.69,3.9,1.23,5.44,1.46a10.94,10.94,0,0,0,4,.22l5.71-1.61c1.94.18,2,1.32,4,1.74,2.28.48,6,1,8.92,1.7,16.72,4.07,22.29,6,27.41,6C368,224.78,368.88,139.86,355,134.67Z"/><path class="cls-18" d="M366.14,184.19c1.1-22.24.94-49.64-11.57-54.32-4.93-1.85-13.63,9.25-12.07,54.77C349.18,185.19,359,185.63,366.14,184.19Z"/><polygon class="cls-20" points="296.17 174.64 297.44 174.64 316.61 221.58 315.29 221.38 296.17 174.64"/><path class="cls-22" d="M267.59,332.49s1.74,5.55-1.37,9.22-16,7.27-17.73,9.26a5.55,5.55,0,0,0-1.56,3.68l36.26-1-.39-10.91-1.67-7.85Z"/><path class="cls-9" d="M264,343.54s9.32,3.75,13.82,1.53,4.36-2.84,5.67-2,1.76,11.06,1.76,11.06l-40.78,1.2c-2.84-.07-4.27-2.15-2-3.94a32.9,32.9,0,0,1,4.45-2.63C250.11,346.93,264,343.54,264,343.54Z"/><path class="cls-15" d="M269,234.55c-2.8-5.88-9.18-13.53-20.4-8.92-10.7,4.39-13.57,15.2-10.19,26.27S264,328,264.75,337l17.74.11s-3.22-51.5-4-63.95C277.72,261.14,273.82,244.73,269,234.55Z"/><path class="cls-5" d="M240.17,174.64h59.31a3.86,3.86,0,0,1,3.58,2.4l18.26,44.54H354a1.65,1.65,0,0,1,1.65,1.65h0a1.65,1.65,0,0,1-1.65,1.66H261a6.47,6.47,0,0,1-5.92-3.84l-18.39-41A3.86,3.86,0,0,1,240.17,174.64Z"/><path class="cls-19" d="M272.1,200.57a3.26,3.26,0,1,0,2.45-4.25A3.49,3.49,0,0,0,272.1,200.57Z"/><ellipse class="cls-2" cx="438.85" cy="82.28" rx="29.29" ry="29.35"/><rect class="cls-15" x="412.34" y="76.72" width="0.83" height="10.8" transform="translate(330.63 494.87) rotate(-90)"/><rect class="cls-15" x="464.6" y="76.72" width="0.83" height="10.8" transform="translate(382.89 547.13) rotate(-90)"/><rect class="cls-15" x="438.39" y="50.94" width="0.83" height="10.82"/><rect class="cls-15" x="438.39" y="103.1" width="0.83" height="10.82"/><path class="cls-15" d="M439.74,82.28a.9.9,0,1,1-.89-.89A.89.89,0,0,1,439.74,82.28Z"/><path class="cls-15" d="M438.85,82.68a.41.41,0,0,1-.28-.11l-16.06-16.1a.4.4,0,1,1,.56-.56L439.13,82a.4.4,0,0,1,0,.57A.43.43,0,0,1,438.85,82.68Z"/><path class="cls-15" d="M444,98.55a.33.33,0,0,1-.14-.17l-5.19-15.71a.29.29,0,0,1,.18-.37.29.29,0,0,1,.37.18l5.19,15.71a.29.29,0,0,1-.19.37A.28.28,0,0,1,444,98.55Z"/><path class="cls-15" d="M485.52,148.48l2.62-4.25-2.1-.85a.89.89,0,0,1-.49-1.17h0a.88.88,0,0,1,1.16-.49l2.42,1,2.34-3.81-2.24-.91a.89.89,0,0,1-.49-1.17h0a.9.9,0,0,1,1.16-.5l2.57,1,2.71-4.36a.91.91,0,0,1,1.1-.36l.39.16a.89.89,0,0,1,.43,1.3l-2.52,4.12,3.71,1.51,2.72-4.37a.9.9,0,0,1,1.1-.36l.43.18a.89.89,0,0,1,.42,1.3l-2.52,4.12,2.1.85a.89.89,0,0,1,.49,1.17h0a.89.89,0,0,1-1.17.49l-2.42-1-2.3,3.83,2.24.91a.9.9,0,0,1,.5,1.16h0a.9.9,0,0,1-1.17.5l-2.57-1-2.77,4.5a.88.88,0,0,1-1.1.36l-.46-.18a.9.9,0,0,1-.42-1.3l2.61-4.25-3.72-1.51-2.77,4.51a.9.9,0,0,1-1.1.36l-.46-.19A.9.9,0,0,1,485.52,148.48Zm9.48-3.4,2.33-3.82-3.71-1.5-2.34,3.81Z"/><path class="cls-15" d="M256.2,33l2.68-6-3.46-5.62a.91.91,0,0,1,.87-1.38l6.56.68,4.28-5a.91.91,0,0,1,1.58.4l1.38,6.45,6.1,2.52a.91.91,0,0,1,.11,1.62l-5.71,3.31-.51,6.58a.91.91,0,0,1-1.51.61l-4.91-4.41-6.41,1.55A.91.91,0,0,1,256.2,33Z"/><path class="cls-15" d="M449.81,33l2-4.52-2.59-4.22a.68.68,0,0,1,.65-1l4.92.51L458,20a.68.68,0,0,1,1.18.3l1,4.84L464.8,27a.67.67,0,0,1,.09,1.21l-4.29,2.49-.38,4.93a.68.68,0,0,1-1.13.45l-3.68-3.3-4.82,1.16A.68.68,0,0,1,449.81,33Z"/><path class="cls-18" d="M429.91,162.26l-.31-3.74-3.27-1.87a.51.51,0,0,1,.05-.92l3.47-1.46.76-3.69a.52.52,0,0,1,.9-.23L434,153.2l3.74-.42a.52.52,0,0,1,.5.78l-1.95,3.22,1.55,3.43a.52.52,0,0,1-.59.72l-3.66-.86-2.78,2.53A.52.52,0,0,1,429.91,162.26Z"/><path class="cls-15" d="M130.05,107.16l1.47-3.32-1.9-3.09a.51.51,0,0,1,.48-.76l3.61.37,2.35-2.76a.5.5,0,0,1,.87.22l.76,3.55,3.36,1.38a.5.5,0,0,1,.06.9L138,105.47l-.28,3.61a.5.5,0,0,1-.83.34l-2.7-2.43-3.53.85A.5.5,0,0,1,130.05,107.16Z"/><path class="cls-15" d="M243.84,101.15l1.47-3.31-1.9-3.1a.5.5,0,0,1,.48-.75l3.61.37,2.35-2.76a.5.5,0,0,1,.87.22l.76,3.54,3.36,1.39a.5.5,0,0,1,.06.89l-3.14,1.82-.28,3.62a.5.5,0,0,1-.83.33L247.94,101l-3.52.85A.5.5,0,0,1,243.84,101.15Z"/><polygon class="cls-15" points="187.19 47.4 193.02 46.56 195.41 55.78 204.08 55.59 207 62.2 210.35 60.73 206.44 51.88 198.22 52.06 195.73 42.47 186.97 43.74 187.19 47.4"/><polygon class="cls-15" points="174.7 201.9 179.11 198 186.17 204.4 193.32 199.49 199.38 203.42 201.37 200.35 193.26 195.1 186.48 199.75 179.14 193.09 172.5 198.96 174.7 201.9"/><path class="cls-15" d="M105.45,206.73l3.7-6-3-1.2a1.28,1.28,0,0,1-.7-1.66h0a1.28,1.28,0,0,1,1.66-.7l3.42,1.39,3.31-5.4-3.17-1.28a1.28,1.28,0,0,1-.7-1.66h0a1.27,1.27,0,0,1,1.65-.7l3.63,1.47,3.84-6.18a1.28,1.28,0,0,1,1.56-.5l.55.22a1.27,1.27,0,0,1,.61,1.84l-3.57,5.83,5.26,2.14,3.84-6.18a1.27,1.27,0,0,1,1.56-.51l.6.25a1.27,1.27,0,0,1,.61,1.84l-3.58,5.83,3,1.2a1.27,1.27,0,0,1,.7,1.66h0a1.27,1.27,0,0,1-1.65.7l-3.43-1.39-3.25,5.42,3.17,1.28a1.28,1.28,0,0,1,.7,1.66h0a1.28,1.28,0,0,1-1.66.7l-3.62-1.47-3.93,6.37a1.27,1.27,0,0,1-1.56.51l-.64-.26a1.28,1.28,0,0,1-.61-1.85l3.7-6L112.19,202l-3.92,6.37a1.26,1.26,0,0,1-1.56.51l-.65-.26A1.27,1.27,0,0,1,105.45,206.73Zm13.41-4.82,3.31-5.39-5.26-2.14-3.31,5.4Z"/><path class="cls-14" d="M441.53,282.75c-.37-3.33-.82-6.72-2.36-9.69-1.88-3.61-5.17-6.21-8.05-9.07a50.37,50.37,0,0,1-12-19.13c-1.93-5.56-2.88-11.47-5.53-16.71-1.62-3.2-3.82-6.06-5.66-9.14-4.34-7.28-6.7-15.88-12.58-22a26.39,26.39,0,0,0,6,20.9,35.28,35.28,0,0,1,4.24,5.15c2,3.51,1.82,7.79,2.05,11.83a51.86,51.86,0,0,0,6.22,21.75c3.86,7.09,9.43,13.41,11.5,21.21,1.54,5.86,1.08,12.42,4.38,17.49a4.48,4.48,0,0,1,.86,1.75,3.69,3.69,0,0,1-.07,1.1c-.07.47-.15.94-.22,1.41-.75,4.79-1.53,10.89,2.59,14.47,2.85,2.48,6.52,2.54,8.57-.76s1.88-8.18,1.73-11.92C442.9,295.18,442.23,288.94,441.53,282.75Z"/><path class="cls-25" d="M448.94,278.9c-1.6-5.55-4.08-10.83-5.33-16.46-1.2-5.47-1.21-11.12-1.22-16.71q0-9.21,0-18.4a69.26,69.26,0,0,0-.64-11.43c-1.36-8.1-5.57-15.59-6.28-23.78-.31-3.54.05-7.11-.34-10.65a16.79,16.79,0,0,0-1.67-5.86,2.61,2.61,0,0,0-4.69.13c-2.05,4.43-3.35,9.22-2.52,14,.5,2.85,1.73,5.5,2.65,8.24,4.1,12.21,1.93,25.71,5.1,38.19,1,3.77,2.41,7.46,2.57,11.34.41,9.3-6.53,17.78-5.9,27.06.53,7.61,6,13.91,8.29,21.18,1.29,4.07,1.56,8.42,2.94,12.46,1.07,3.13,3.56,6.95,7.42,6,3.67-.9,2.56-3.9,2.4-6.76C451.15,297.74,451.68,288.35,448.94,278.9Z"/><path class="cls-14" d="M457.34,284c-.16-2.88-.65-5.78-.24-8.64a51.28,51.28,0,0,1,2-7A62.8,62.8,0,0,0,461,254.79q.84-12.42,1.7-24.84c.88-12.87,1.76-25.78,4.17-38.45.66-3.52,1.41-7.33-.17-10.55-.33-.67-1-1.39-1.71-1.17-.51.16-.76.73-.95,1.23-5.26,14.3-7.24,29.69-13.12,43.74-1.4,3.37-3,6.68-3.77,10.26-.87,4.29-.39,8.73-.28,13.11a62.11,62.11,0,0,1-2.18,18.66c-.91,3.16-2.13,6.25-2.62,9.5-.62,4.05-.1,8.18.29,12.26a188.14,188.14,0,0,1,.75,23.62c-.14,4.64,3.77,4.52,6.36,1.67,1.81-2,1.8-4.18,2.42-6.65C453.92,299,457.84,292.8,457.34,284Z"/><path class="cls-25" d="M432.91,296.54c-3.46-5.56-10.35-8.72-12.56-14.88-.56-1.57-.78-3.25-1.47-4.77-1.52-3.37-5-5.28-8.4-6.83a.72.72,0,0,0-1,.65h0a2.45,2.45,0,0,0,1.07,2.08,13.9,13.9,0,0,1,5.51,7.52c1,3.62.6,7.57,1.91,11.1,1.1,3,3.36,5.38,4.42,8.35,1,2.72.87,5.69,1.33,8.54s1.72,5.88,4.34,7.09C437.51,319.75,435.14,300.13,432.91,296.54Z"/><path class="cls-14" d="M472.31,294.7c-.15,2.69.26,5.51-.79,8a23.35,23.35,0,0,1-2.88,4.27c-3.48,4.93-4.75,11.92-10.11,14.7a1.83,1.83,0,0,1-1.13.27,1.74,1.74,0,0,1-1.13-1.14c-1.32-3.06.16-6.51,1-9.73a2.37,2.37,0,0,0,0-1.7c-.29-.57-1-.82-1.42-1.26-.92-.9-.83-2.37-.65-3.63a81.36,81.36,0,0,1,1.91-9.39,16.36,16.36,0,0,1,2-5,22.34,22.34,0,0,1,4.23-4.18A50.19,50.19,0,0,0,478,264.25a14.2,14.2,0,0,1,2.45-5.12c1.28-1.41,3.56-2.14,5.12-1,1.11.78-3.43,8.08-4,9-1.51,2.5-1.53,4.68-2.39,7.46C477.16,281.31,472.71,287.41,472.31,294.7Z"/><path class="cls-25" d="M467,297.81a32.74,32.74,0,0,0,2.31-7.89c.37-3-.12-6.13.4-9.14.67-3.87,2.93-7.28,4-11a71.52,71.52,0,0,0,1.49-8.37c1.39-8,5.14-15.8,4.07-23.84-.24-1.75-1-3.79-2.76-4.08-1.57-.27-3,1.16-3.41,2.71a14.35,14.35,0,0,0,0,4.76,19.71,19.71,0,0,1-3.53,12.62c-2.46,3.49-6,6.12-8.27,9.77-2.72,4.49-3.09,10-4.48,15-2.77,10.06-9.7,18.84-11,29.2-.51,4.13.46,9.14,4.27,10.78C461.21,323.08,464.53,304.26,467,297.81Z"/><path class="cls-18" d="M447.79,310.58H422.53a2.68,2.68,0,0,0-2.6,3.3l9.21,38.82a2.66,2.66,0,0,0,2.6,2.06h30.34a2.67,2.67,0,0,0,2.6-2.06l9.21-38.82a2.69,2.69,0,0,0-2.61-3.3Z"/><rect class="cls-15" x="71.64" y="265.15" width="122.76" height="6.34"/><rect class="cls-15" x="73.86" y="301.93" width="80.26" height="5.55"/><rect class="cls-15" x="177.17" y="268.32" width="5.18" height="86.48"/><rect class="cls-15" x="103.94" y="268.32" width="5.18" height="86.48"/><polygon class="cls-15" points="140.34 354.79 168.24 269.06 163.66 267.57 135.28 354.79 140.34 354.79"/><polygon class="cls-15" points="61.87 354.79 85.73 268.87 81.1 267.58 56.88 354.79 61.87 354.79"/><path class="cls-15" d="M438.85,48a34.28,34.28,0,1,0,34.2,34.27A34.23,34.23,0,0,0,438.85,48Zm1.83,63.56a29.35,29.35,0,1,1,27.4-31.12A29.3,29.3,0,0,1,440.68,111.57Z"/><rect class="cls-15" x="24.41" y="354.26" width="563.87" height="3.82"/><path class="cls-19" d="M308.4,109.77l9.12-.15a4,4,0,0,1-4.16,3.64C308.47,113.49,308.4,109.77,308.4,109.77Z"/></g></g></g></svg>